<svg width="61" height="61" viewBox="0 0 61 61" fill="none" xmlns="http://www.w3.org/2000/svg">
<path d="M53.1463 28.2633C53.1463 40.6921 44.1234 52.3329 31.7963 55.7387C30.9575 55.9675 30.0425 55.9675 29.2037 55.7387C16.8766 52.3329 7.85374 40.6921 7.85374 28.2633V17.1054C7.85374 15.0212 9.42962 12.6574 11.3867 11.8695L25.5437 6.0746C28.7208 4.77835 32.3046 4.77835 35.4816 6.0746L49.6387 11.8695C51.5704 12.6574 53.1717 15.0212 53.1717 17.1054L53.1463 28.2633Z" stroke="#EB6B69" stroke-width="3.8125" stroke-linecap="round" stroke-linejoin="round"/>
<path d="M30.5 31.7708C33.3075 31.7708 35.5833 29.4949 35.5833 26.6875C35.5833 23.88 33.3075 21.6041 30.5 21.6041C27.6926 21.6041 25.4167 23.88 25.4167 26.6875C25.4167 29.4949 27.6926 31.7708 30.5 31.7708Z" stroke="#EB6B69" stroke-width="3.8125" stroke-miterlimit="10" stroke-linecap="round" stroke-linejoin="round"/>
<path d="M30.5 31.7708V39.3958" stroke="#EB6B69" stroke-width="3.8125" stroke-miterlimit="10" stroke-linecap="round" stroke-linejoin="round"/>
</svg>
