<svg width="61" height="61" viewBox="0 0 61 61" fill="none" xmlns="http://www.w3.org/2000/svg">
<path d="M30.5 55.9167C44.5372 55.9167 55.9167 44.5373 55.9167 30.5C55.9167 16.4628 44.5372 5.08337 30.5 5.08337C16.4628 5.08337 5.08333 16.4628 5.08333 30.5C5.08333 44.5373 16.4628 55.9167 30.5 55.9167Z" stroke="#46B17E" stroke-width="3.8125" stroke-linecap="round" stroke-linejoin="round"/>
<path d="M20.3333 7.625H22.875C17.9187 22.4683 17.9187 38.5317 22.875 53.375H20.3333" stroke="#46B17E" stroke-width="3.8125" stroke-linecap="round" stroke-linejoin="round"/>
<path d="M38.125 7.625C43.0812 22.4683 43.0812 38.5317 38.125 53.375" stroke="#46B17E" stroke-width="3.8125" stroke-linecap="round" stroke-linejoin="round"/>
<path d="M7.625 40.6667V38.125C22.4683 43.0812 38.5317 43.0812 53.375 38.125V40.6667" stroke="#46B17E" stroke-width="3.8125" stroke-linecap="round" stroke-linejoin="round"/>
<path d="M7.625 22.875C22.4683 17.9188 38.5317 17.9188 53.375 22.875" stroke="#46B17E" stroke-width="3.8125" stroke-linecap="round" stroke-linejoin="round"/>
</svg>
