<svg width="61" height="61" viewBox="0 0 61 61" fill="none" xmlns="http://www.w3.org/2000/svg">
<path d="M27.9583 6.60845L15.25 13.7251C13.725 14.7418 12.7083 16.2668 12.7083 18.0459V40.6668C12.7083 42.1918 13.4708 43.9709 14.7417 44.7334L27.45 53.8834C29.2292 55.1543 31.5167 55.1543 33.2958 53.8834L46.0042 44.7334C47.275 43.7168 48.0375 42.1918 48.0375 40.6668V18.3001C48.0375 16.5209 47.0208 14.7418 45.4958 13.9793L32.7875 6.60845C31.5167 5.59178 29.4833 5.59178 27.9583 6.60845Z" stroke="#FFCC00" stroke-width="3.8125" stroke-miterlimit="10" stroke-linecap="round" stroke-linejoin="round"/>
<path d="M30.5 7.625L25.4167 30.5L29.9917 53.8833" stroke="#FFCC00" stroke-width="3.8125" stroke-miterlimit="10" stroke-linecap="round" stroke-linejoin="round"/>
<path d="M46.2583 42.9543L25.4167 30.5002L47.0208 18.5543" stroke="#FFCC00" stroke-width="3.8125" stroke-miterlimit="10" stroke-linecap="round" stroke-linejoin="round"/>
</svg>
