<svg width="61" height="61" viewBox="0 0 61 61" fill="none" xmlns="http://www.w3.org/2000/svg">
<path d="M20.3333 14.6146C19.2912 14.6146 18.4271 13.7505 18.4271 12.7084V5.08337C18.4271 4.04129 19.2912 3.17712 20.3333 3.17712C21.3754 3.17712 22.2396 4.04129 22.2396 5.08337V12.7084C22.2396 13.7505 21.3754 14.6146 20.3333 14.6146Z" fill="#E49C2F"/>
<path d="M40.6667 14.6146C39.6246 14.6146 38.7604 13.7505 38.7604 12.7084V5.08337C38.7604 4.04129 39.6246 3.17712 40.6667 3.17712C41.7088 3.17712 42.5729 4.04129 42.5729 5.08337V12.7084C42.5729 13.7505 41.7088 14.6146 40.6667 14.6146Z" fill="#E49C2F"/>
<path d="M21.6042 36.8541C21.2738 36.8541 20.9433 36.7779 20.6383 36.6508C20.3079 36.5238 20.0538 36.3458 19.7996 36.117C19.3421 35.6341 19.0625 34.9987 19.0625 34.3125C19.0625 33.9821 19.1388 33.6516 19.2658 33.3466C19.3929 33.0416 19.5708 32.7621 19.7996 32.5079C20.0538 32.2792 20.3079 32.1012 20.6383 31.9741C21.5533 31.5929 22.6971 31.7962 23.4087 32.5079C23.8662 32.9908 24.1458 33.6516 24.1458 34.3125C24.1458 34.465 24.1204 34.6429 24.095 34.8208C24.0696 34.9733 24.0187 35.1258 23.9425 35.2783C23.8917 35.4308 23.8154 35.5833 23.7138 35.7358C23.6375 35.8629 23.5104 35.99 23.4087 36.117C22.9258 36.5745 22.265 36.8541 21.6042 36.8541Z" fill="#E49C2F"/>
<path d="M30.5 36.8542C30.1696 36.8542 29.8391 36.778 29.5341 36.6509C29.2037 36.5238 28.9496 36.3459 28.6954 36.1171C28.2379 35.6342 27.9583 34.9988 27.9583 34.3125C27.9583 33.9821 28.0346 33.6517 28.1617 33.3467C28.2887 33.0417 28.4666 32.7621 28.6954 32.508C28.9496 32.2792 29.2037 32.1013 29.5341 31.9742C30.4491 31.5675 31.5929 31.7963 32.3046 32.508C32.7621 32.9909 33.0416 33.6517 33.0416 34.3125C33.0416 34.465 33.0162 34.643 32.9908 34.8209C32.9654 34.9734 32.9146 35.1259 32.8383 35.2784C32.7875 35.4309 32.7112 35.5834 32.6096 35.7359C32.5333 35.863 32.4062 35.99 32.3046 36.1171C31.8216 36.5746 31.1608 36.8542 30.5 36.8542Z" fill="#E49C2F"/>
<path d="M39.3959 36.8542C39.0654 36.8542 38.735 36.778 38.43 36.6509C38.0996 36.5238 37.8454 36.3459 37.5913 36.1171C37.4896 35.99 37.3879 35.863 37.2863 35.7359C37.1846 35.5834 37.1084 35.4309 37.0575 35.2784C36.9813 35.1259 36.9304 34.9734 36.905 34.8209C36.8796 34.643 36.8542 34.465 36.8542 34.3125C36.8542 33.6517 37.1338 32.9909 37.5913 32.508C37.8454 32.2792 38.0996 32.1013 38.43 31.9742C39.3704 31.5675 40.4888 31.7963 41.2004 32.508C41.6579 32.9909 41.9375 33.6517 41.9375 34.3125C41.9375 34.465 41.9121 34.643 41.8867 34.8209C41.8613 34.9734 41.8104 35.1259 41.7342 35.2784C41.6833 35.4309 41.6071 35.5834 41.5054 35.7359C41.4292 35.863 41.3021 35.99 41.2004 36.1171C40.7175 36.5746 40.0567 36.8542 39.3959 36.8542Z" fill="#E49C2F"/>
<path d="M21.6042 45.75C21.2738 45.75 20.9433 45.6738 20.6383 45.5467C20.3333 45.4196 20.0538 45.2417 19.7996 45.0129C19.3421 44.53 19.0625 43.8692 19.0625 43.2084C19.0625 42.8779 19.1388 42.5475 19.2658 42.2425C19.3929 41.9121 19.5708 41.6325 19.7996 41.4038C20.74 40.4634 22.4683 40.4634 23.4087 41.4038C23.8662 41.8867 24.1458 42.5475 24.1458 43.2084C24.1458 43.8692 23.8662 44.53 23.4087 45.0129C22.9258 45.4704 22.265 45.75 21.6042 45.75Z" fill="#E49C2F"/>
<path d="M30.5 45.75C29.8391 45.75 29.1783 45.4704 28.6954 45.0129C28.2379 44.53 27.9583 43.8692 27.9583 43.2084C27.9583 42.8779 28.0346 42.5475 28.1617 42.2425C28.2887 41.9121 28.4666 41.6325 28.6954 41.4038C29.6358 40.4634 31.3641 40.4634 32.3046 41.4038C32.5333 41.6325 32.7112 41.9121 32.8383 42.2425C32.9654 42.5475 33.0416 42.8779 33.0416 43.2084C33.0416 43.8692 32.7621 44.53 32.3046 45.0129C31.8216 45.4704 31.1608 45.75 30.5 45.75Z" fill="#E49C2F"/>
<path d="M39.3959 45.7501C38.735 45.7501 38.0742 45.4705 37.5913 45.013C37.3625 44.7843 37.1846 44.5047 37.0575 44.1743C36.9304 43.8693 36.8542 43.5389 36.8542 43.2085C36.8542 42.8781 36.9304 42.5476 37.0575 42.2426C37.1846 41.9122 37.3625 41.6327 37.5913 41.4039C38.1759 40.8193 39.0654 40.5397 39.8788 40.7176C40.0567 40.743 40.2092 40.7939 40.3617 40.8701C40.5142 40.9209 40.6667 40.9973 40.8192 41.0989C40.9463 41.1752 41.0734 41.3023 41.2004 41.4039C41.6579 41.8868 41.9375 42.5476 41.9375 43.2085C41.9375 43.8693 41.6579 44.5301 41.2004 45.013C40.7175 45.4705 40.0567 45.7501 39.3959 45.7501Z" fill="#E49C2F"/>
<path d="M52.1041 25.0099H8.89581C7.85373 25.0099 6.98956 24.1457 6.98956 23.1036C6.98956 22.0616 7.85373 21.1974 8.89581 21.1974H52.1041C53.1462 21.1974 54.0104 22.0616 54.0104 23.1036C54.0104 24.1457 53.1462 25.0099 52.1041 25.0099Z" fill="#E49C2F"/>
<path d="M40.6667 57.823H20.3333C11.0563 57.823 5.71875 52.4855 5.71875 43.2084V21.6042C5.71875 12.3271 11.0563 6.98962 20.3333 6.98962H40.6667C49.9438 6.98962 55.2812 12.3271 55.2812 21.6042V43.2084C55.2812 52.4855 49.9438 57.823 40.6667 57.823ZM20.3333 10.8021C13.0642 10.8021 9.53125 14.335 9.53125 21.6042V43.2084C9.53125 50.4775 13.0642 54.0105 20.3333 54.0105H40.6667C47.9358 54.0105 51.4688 50.4775 51.4688 43.2084V21.6042C51.4688 14.335 47.9358 10.8021 40.6667 10.8021H20.3333Z" fill="#E49C2F"/>
</svg>
